<?xml version="1.0" encoding="utf-8"?>
<!-- Generator: Adobe Illustrator 28.0.0, SVG Export Plug-In . SVG Version: 6.00 Build 0)  -->
<svg version="1.1" id="Ebene_1" xmlns="http://www.w3.org/2000/svg" xmlns:xlink="http://www.w3.org/1999/xlink" x="0px" y="0px"
	 viewBox="0 0 576 512" style="enable-background:new 0 0 576 512;" xml:space="preserve">
<style type="text/css">
	.st0{fill:#181818;}
</style>
<g>
	<path class="st0" d="M236.5,0h1.1C237.3,0,236.9,0,236.5,0z"/>
	<path class="st0" d="M64,276.5c0-38.4,17.8-85.3,45.4-131.7c27.9-47.1,67.3-96.2,113.9-139.4c3.7-3.5,8.5-5.3,13.2-5.4H0v512h288
		C162.4,512,64,404.1,64,276.5z"/>
	<path class="st0" d="M237.6,0c4.8,0.1,9.6,2,13.4,5.5c27.6,25.9,53.5,53.8,77.7,84c11-14.4,23.5-30.1,37-42.9
		c7.9-7.4,20.1-7.4,28,0.1c34.6,33,63.9,76.6,84.5,118c20.3,40.8,33.8,82.5,33.8,111.9C512,404.2,412.2,512,288,512h288V0H237.6z"/>
	<path class="st0" d="M364.1,258.6l-25.2,29.3c-6.6,7.6-18.5,7.4-24.7-0.5c-16.5-21-46-58.5-62.8-79.8c-6.3-8-18.3-8.1-24.7-0.1
		c-33.8,42.5-50.8,69.3-50.8,99.4C176,375.4,226.6,416,289.7,416c25.3,0,47.7-7,68.8-21c42.1-29.4,53.4-88.2,28.1-134.4
		C382.1,251.6,370.6,251,364.1,258.6z"/>
</g>
</svg>
