<?xml version="1.0" encoding="utf-8"?>
<!-- Generator: Adobe Illustrator 28.0.0, SVG Export Plug-In . SVG Version: 6.00 Build 0)  -->
<svg version="1.1" id="Ebene_1" xmlns="http://www.w3.org/2000/svg" xmlns:xlink="http://www.w3.org/1999/xlink" x="0px" y="0px"
	 viewBox="0 0 576 512" style="enable-background:new 0 0 576 512;" xml:space="preserve">
<style type="text/css">
	.st0{fill:#181818;}
</style>
<g>
	<path class="st0" d="M272,416c-44.2,0-80-35.8-80-80c0-8.8-7.2-16-16-16s-16,7.2-16,16c0,61.9,50.1,112,112,112c8.8,0,16-7.2,16-16
		S280.8,416,272,416z"/>
	<path class="st0" d="M96,320c0-91.2,130.2-262.3,166.6-308.3c6-7.5,14.9-11.7,24.5-11.7H0v512h288C182,512,96,426,96,320z"/>
	<path class="st0" d="M288.9,0c9.6,0,18.5,4.2,24.5,11.7C349.8,57.7,480,228.8,480,320c0,106-86,192-192,192h288V0H288.9z"/>
</g>
</svg>
