<?xml version="1.0" encoding="utf-8"?>
<!-- Generator: Adobe Illustrator 28.0.0, SVG Export Plug-In . SVG Version: 6.00 Build 0)  -->
<svg version="1.1" id="Ebene_1" xmlns="http://www.w3.org/2000/svg" xmlns:xlink="http://www.w3.org/1999/xlink" x="0px" y="0px"
	 viewBox="0 0 576 512" style="enable-background:new 0 0 576 512;" xml:space="preserve">
<style type="text/css">
	.st0{fill:#181818;}
</style>
<g>
	<path class="st0" d="M0,161.3v-3.1C-0.1,159.3,0,160.3,0,161.3z"/>
	<path class="st0" d="M576,254.4v3.1C576,256.5,576,255.4,576,254.4z"/>
	<path class="st0" d="M0,351.3v-0.2C0,351.2,0,351.3,0,351.3z"/>
	<path class="st0" d="M48.1,132.4l93.1,54.3c11.7-12.4,25.4-24.8,40.7-36.3c15.5-11.6,33-22.5,52.4-31.5l-9.7-48.6
		c-2.6-13,3-26.4,14.3-33.4s25.7-6.5,36.3,1.5l77.7,58.2c54.9,4,101.4,27,137.2,53.8c39.1,29.4,67.2,64.7,81.6,89.5
		c2.6,4.5,4.1,9.5,4.3,14.5V0H0v158.2c0.4-7.7,3.6-15.2,9.4-20.9C19.7,127.1,35.6,125.1,48.1,132.4z"/>
	<path class="st0" d="M571.7,272c-14.4,24.8-42.4,60.1-81.6,89.5c-35.7,26.8-82.3,49.8-137.2,53.8l-77.6,58.2
		c-10.7,8-25.1,8.5-36.3,1.5s-16.9-20.3-14.3-33.3l9.7-48.6c-19.4-9-36.9-19.9-52.4-31.5c-15.3-11.5-28.9-24-40.7-36.3l-93.1,54.3
		c-12.6,7.3-28.4,5.3-38.7-4.9c-6.4-6.3-9.7-14.8-9.5-23.4V512h576V257.5C575.8,262.5,574.3,267.5,571.7,272z"/>
	<path class="st0" d="M50,256L4.2,175.9c-2.6-4.6-4-9.6-4.2-14.6v189.8c0.1-5.1,1.5-10.3,4.2-15L50,256z"/>
	<circle class="st0" cx="416" cy="256" r="32"/>
</g>
</svg>
