<?xml version="1.0" encoding="utf-8"?>
<!-- Generator: Adobe Illustrator 28.0.0, SVG Export Plug-In . SVG Version: 6.00 Build 0)  -->
<svg version="1.1" id="Ebene_1" xmlns="http://www.w3.org/2000/svg" xmlns:xlink="http://www.w3.org/1999/xlink" x="0px" y="0px"
	 viewBox="0 0 576 512" style="enable-background:new 0 0 576 512;" xml:space="preserve">
<style type="text/css">
	.st0{fill:#181818;}
</style>
<path class="st0" d="M0,0v512h576V0H0z M496.4,300.5L315.7,469.1c-7.5,7-17.4,10.9-27.7,10.9c-10.3,0-20.2-3.9-27.7-10.9L79.6,300.4
	c-4.2-3.9-8.2-8.1-11.9-12.4h87c22.6,0,43-13.6,51.7-34.5l10.5-25.2l49.3,109.5c3.8,8.5,12.1,14,21.4,14.1c9.3,0.1,17.8-5,22-13.3
	l42.4-84.9l1.7,3.4c9.5,19,28.9,31,50.1,31h104.5C504.6,292.4,500.6,296.6,496.4,300.5z M544,190.9c0,16.9-2.8,33.5-8.3,49.1h-132
	c-3,0-5.8-1.7-7.2-4.4l-23.2-46.3c-4.1-8.1-12.4-13.3-21.5-13.3c-9.1,0-17.4,5.1-21.5,13.3l-41.4,82.8l-51-113.9
	c-3.9-8.7-12.7-14.3-22.2-14.1s-18.1,5.9-21.8,14.8l-31.8,76.3c-1.2,3-4.2,4.9-7.4,4.9H48c-2.6,0-5,0.4-7.3,1.1
	c-5.7-16-8.7-33-8.7-50.3v-5.8c0-69.9,50.5-129.5,119.4-141c45.6-7.6,92,7.3,124.6,39.9l12,12l12-12c32.6-32.6,79-47.5,124.6-39.9
	c68.9,11.5,119.4,71.1,119.4,141V190.9z"/>
</svg>
